<?xml version="1.0" encoding="UTF-8" standalone="no"?><svg xmlns="http://www.w3.org/2000/svg" xmlns:xlink="http://www.w3.org/1999/xlink" contentScriptType="application/ecmascript" contentStyleType="text/css" height="602px" preserveAspectRatio="none" style="width:1893px;height:602px;" version="1.1" viewBox="0 0 1893 602" width="1893px" zoomAndPan="magnify"><defs><filter height="300%" id="f1vhukhkrwhion" width="300%" x="-1" y="-1"><feGaussianBlur result="blurOut" stdDeviation="2.0"/><feColorMatrix in="blurOut" result="blurOut2" type="matrix" values="0 0 0 0 0 0 0 0 0 0 0 0 0 0 0 0 0 0 .4 0"/><feOffset dx="4.0" dy="4.0" in="blurOut2" result="blurOut3"/><feBlend in="SourceGraphic" in2="blurOut3" mode="normal"/></filter></defs><g><!--cluster odtwarzacz--><polygon fill="#FFFFFF" filter="url(#f1vhukhkrwhion)" points="14,16,112,16,119,38.2969,1871,38.2969,1871,590,14,590,14,16" style="stroke: #000000; stroke-width: 2.0;"/><line style="stroke: #000000; stroke-width: 2.0;" x1="14" x2="119" y1="38.2969" y2="38.2969"/><text fill="#000000" font-family="sans-serif" font-size="14" font-weight="bold" lengthAdjust="spacingAndGlyphs" textLength="92" x="18" y="30.9951">odtwarzacz</text><!--class odtwarzacz.Main--><rect fill="#FEFECE" filter="url(#f1vhukhkrwhion)" height="60.8047" id="odtwarzacz.Main" style="stroke: #A80036; stroke-width: 1.5;" width="105" x="878.5" y="43"/><ellipse cx="913.3" cy="59" fill="#B4A7E5" rx="11" ry="11" style="stroke: #A80036; stroke-width: 1.0;"/><path d="M909.2219,54.7656 L909.2219,52.6094 L916.6125,52.6094 L916.6125,54.7656 L914.1438,54.7656 L914.1438,62.8438 L916.6125,62.8438 L916.6125,65 L909.2219,65 L909.2219,62.8438 L911.6906,62.8438 L911.6906,54.7656 L909.2219,54.7656 Z "/><text fill="#000000" font-family="sans-serif" font-size="12" font-style="italic" lengthAdjust="spacingAndGlyphs" textLength="29" x="931.7" y="63.1543">Main</text><line style="stroke: #A80036; stroke-width: 1.5;" x1="879.5" x2="982.5" y1="75" y2="75"/><line style="stroke: #A80036; stroke-width: 1.5;" x1="879.5" x2="982.5" y1="83" y2="83"/><ellipse cx="889.5" cy="94.9023" fill="#84BE84" rx="3" ry="3" style="stroke: #038048; stroke-width: 1.0;"/><text fill="#000000" font-family="sans-serif" font-size="11" lengthAdjust="spacingAndGlyphs" textLength="79" x="898.5" y="97.2104">void execute()</text><!--class odtwarzacz.MainWindow--><rect fill="#FEFECE" filter="url(#f1vhukhkrwhion)" height="60.8047" id="odtwarzacz.MainWindow" style="stroke: #A80036; stroke-width: 1.5;" width="187" x="837.5" y="196"/><ellipse cx="888.75" cy="212" fill="#ADD1B2" rx="11" ry="11" style="stroke: #A80036; stroke-width: 1.0;"/><path d="M891.7188,217.6406 Q891.1406,217.9375 890.5,218.0781 Q889.8594,218.2344 889.1563,218.2344 Q886.6563,218.2344 885.3281,216.5938 Q884.0156,214.9375 884.0156,211.8125 Q884.0156,208.6875 885.3281,207.0313 Q886.6563,205.375 889.1563,205.375 Q889.8594,205.375 890.5,205.5313 Q891.1563,205.6875 891.7188,205.9844 L891.7188,208.7031 Q891.0938,208.125 890.5,207.8594 Q889.9063,207.5781 889.2813,207.5781 Q887.9375,207.5781 887.25,208.6563 Q886.5625,209.7188 886.5625,211.8125 Q886.5625,213.9063 887.25,214.9844 Q887.9375,216.0469 889.2813,216.0469 Q889.9063,216.0469 890.5,215.7813 Q891.0938,215.5 891.7188,214.9219 L891.7188,217.6406 Z "/><text fill="#000000" font-family="sans-serif" font-size="12" lengthAdjust="spacingAndGlyphs" textLength="76" x="909.25" y="216.1543">MainWindow</text><line style="stroke: #A80036; stroke-width: 1.5;" x1="838.5" x2="1023.5" y1="228" y2="228"/><line style="stroke: #A80036; stroke-width: 1.5;" x1="838.5" x2="1023.5" y1="236" y2="236"/><ellipse cx="848.5" cy="247.9023" fill="#84BE84" rx="3" ry="3" style="stroke: #038048; stroke-width: 1.0;"/><text fill="#000000" font-family="sans-serif" font-size="11" lengthAdjust="spacingAndGlyphs" textLength="161" x="857.5" y="250.2104">explicit MainWintow(QWiget*)</text><!--class odtwarzacz.init--><rect fill="#FEFECE" filter="url(#f1vhukhkrwhion)" height="112.0234" id="odtwarzacz.init" style="stroke: #A80036; stroke-width: 1.5;" width="212" x="22" y="349"/><ellipse cx="114.25" cy="365" fill="#ADD1B2" rx="11" ry="11" style="stroke: #A80036; stroke-width: 1.0;"/><path d="M117.2188,370.6406 Q116.6406,370.9375 116,371.0781 Q115.3594,371.2344 114.6563,371.2344 Q112.1563,371.2344 110.8281,369.5938 Q109.5156,367.9375 109.5156,364.8125 Q109.5156,361.6875 110.8281,360.0313 Q112.1563,358.375 114.6563,358.375 Q115.3594,358.375 116,358.5313 Q116.6563,358.6875 117.2188,358.9844 L117.2188,361.7031 Q116.5938,361.125 116,360.8594 Q115.4063,360.5781 114.7813,360.5781 Q113.4375,360.5781 112.75,361.6563 Q112.0625,362.7188 112.0625,364.8125 Q112.0625,366.9063 112.75,367.9844 Q113.4375,369.0469 114.7813,369.0469 Q115.4063,369.0469 116,368.7813 Q116.5938,368.5 117.2188,367.9219 L117.2188,370.6406 Z "/><text fill="#000000" font-family="sans-serif" font-size="12" lengthAdjust="spacingAndGlyphs" textLength="19" x="134.75" y="369.1543">init</text><line style="stroke: #A80036; stroke-width: 1.5;" x1="23" x2="233" y1="381" y2="381"/><rect fill="none" height="6" style="stroke: #C82930; stroke-width: 1.0;" width="6" x="30" y="389.9023"/><text fill="#000000" font-family="sans-serif" font-size="11" lengthAdjust="spacingAndGlyphs" textLength="158" x="42" y="395.2104">QVideoWidget* videoWidget;</text><rect fill="none" height="6" style="stroke: #C82930; stroke-width: 1.0;" width="6" x="30" y="402.707"/><text fill="#000000" font-family="sans-serif" font-size="11" lengthAdjust="spacingAndGlyphs" textLength="161" x="42" y="408.0151">QMediaPlayer* mediaPlayer;</text><rect fill="none" height="6" style="stroke: #C82930; stroke-width: 1.0;" width="6" x="30" y="415.5117"/><text fill="#000000" font-family="sans-serif" font-size="11" lengthAdjust="spacingAndGlyphs" textLength="174" x="42" y="420.8198">QSlider* currentContentSlider;</text><rect fill="none" height="6" style="stroke: #C82930; stroke-width: 1.0;" width="6" x="30" y="428.3164"/><text fill="#000000" font-family="sans-serif" font-size="11" lengthAdjust="spacingAndGlyphs" textLength="186" x="42" y="433.6245">QLabel* currentContentDuration;</text><line style="stroke: #A80036; stroke-width: 1.5;" x1="23" x2="233" y1="440.2188" y2="440.2188"/><ellipse cx="33" cy="452.1211" fill="#84BE84" rx="3" ry="3" style="stroke: #038048; stroke-width: 1.0;"/><text fill="#000000" font-family="sans-serif" font-size="11" lengthAdjust="spacingAndGlyphs" textLength="165" x="42" y="454.4292">explicit MainWintow(QWiget*);</text><!--class odtwarzacz.initLayout--><rect fill="#FEFECE" filter="url(#f1vhukhkrwhion)" height="124.8281" id="odtwarzacz.initLayout" style="stroke: #A80036; stroke-width: 1.5;" width="212" x="260" y="164"/><ellipse cx="331.75" cy="180" fill="#ADD1B2" rx="11" ry="11" style="stroke: #A80036; stroke-width: 1.0;"/><path d="M334.7188,185.6406 Q334.1406,185.9375 333.5,186.0781 Q332.8594,186.2344 332.1563,186.2344 Q329.6563,186.2344 328.3281,184.5938 Q327.0156,182.9375 327.0156,179.8125 Q327.0156,176.6875 328.3281,175.0313 Q329.6563,173.375 332.1563,173.375 Q332.8594,173.375 333.5,173.5313 Q334.1563,173.6875 334.7188,173.9844 L334.7188,176.7031 Q334.0938,176.125 333.5,175.8594 Q332.9063,175.5781 332.2813,175.5781 Q330.9375,175.5781 330.25,176.6563 Q329.5625,177.7188 329.5625,179.8125 Q329.5625,181.9063 330.25,182.9844 Q330.9375,184.0469 332.2813,184.0469 Q332.9063,184.0469 333.5,183.7813 Q334.0938,183.5 334.7188,182.9219 L334.7188,185.6406 Z "/><text fill="#000000" font-family="sans-serif" font-size="12" lengthAdjust="spacingAndGlyphs" textLength="60" x="352.25" y="184.1543">initLayout</text><line style="stroke: #A80036; stroke-width: 1.5;" x1="261" x2="471" y1="196" y2="196"/><rect fill="none" height="6" style="stroke: #C82930; stroke-width: 1.0;" width="6" x="268" y="204.9023"/><text fill="#000000" font-family="sans-serif" font-size="11" lengthAdjust="spacingAndGlyphs" textLength="158" x="280" y="210.2104">QBoxLayout* displayLayout;</text><rect fill="none" height="6" style="stroke: #C82930; stroke-width: 1.0;" width="6" x="268" y="217.707"/><text fill="#000000" font-family="sans-serif" font-size="11" lengthAdjust="spacingAndGlyphs" textLength="133" x="280" y="223.0151">QHBoxLayout* hLayout;</text><rect fill="none" height="6" style="stroke: #C82930; stroke-width: 1.0;" width="6" x="268" y="230.5117"/><text fill="#000000" font-family="sans-serif" font-size="11" lengthAdjust="spacingAndGlyphs" textLength="138" x="280" y="235.8198">QBoxLayout* boxLayout;</text><rect fill="none" height="6" style="stroke: #C82930; stroke-width: 1.0;" width="6" x="268" y="243.3164"/><text fill="#000000" font-family="sans-serif" font-size="11" lengthAdjust="spacingAndGlyphs" textLength="174" x="280" y="248.6245">QSlider* currentContentSlider;</text><rect fill="none" height="6" style="stroke: #C82930; stroke-width: 1.0;" width="6" x="268" y="256.1211"/><text fill="#000000" font-family="sans-serif" font-size="11" lengthAdjust="spacingAndGlyphs" textLength="186" x="280" y="261.4292">QLabel* currentContentDuration;</text><line style="stroke: #A80036; stroke-width: 1.5;" x1="261" x2="471" y1="268.0234" y2="268.0234"/><ellipse cx="271" cy="279.9258" fill="#84BE84" rx="3" ry="3" style="stroke: #038048; stroke-width: 1.0;"/><text fill="#000000" font-family="sans-serif" font-size="11" lengthAdjust="spacingAndGlyphs" textLength="165" x="280" y="282.2339">explicit MainWintow(QWiget*);</text><!--class odtwarzacz.initSignalAndSlots--><rect fill="#FEFECE" filter="url(#f1vhukhkrwhion)" height="73.6094" id="odtwarzacz.initSignalAndSlots" style="stroke: #A80036; stroke-width: 1.5;" width="200" x="25" y="189.5"/><ellipse cx="65.2" cy="205.5" fill="#ADD1B2" rx="11" ry="11" style="stroke: #A80036; stroke-width: 1.0;"/><path d="M68.1688,211.1406 Q67.5906,211.4375 66.95,211.5781 Q66.3094,211.7344 65.6063,211.7344 Q63.1063,211.7344 61.7781,210.0938 Q60.4656,208.4375 60.4656,205.3125 Q60.4656,202.1875 61.7781,200.5313 Q63.1063,198.875 65.6063,198.875 Q66.3094,198.875 66.95,199.0313 Q67.6063,199.1875 68.1688,199.4844 L68.1688,202.2031 Q67.5438,201.625 66.95,201.3594 Q66.3563,201.0781 65.7313,201.0781 Q64.3875,201.0781 63.7,202.1563 Q63.0125,203.2188 63.0125,205.3125 Q63.0125,207.4063 63.7,208.4844 Q64.3875,209.5469 65.7313,209.5469 Q66.3563,209.5469 66.95,209.2813 Q67.5438,209 68.1688,208.4219 L68.1688,211.1406 Z "/><text fill="#000000" font-family="sans-serif" font-size="12" lengthAdjust="spacingAndGlyphs" textLength="112" x="84.8" y="209.6543">initSignalAndSlots</text><line style="stroke: #A80036; stroke-width: 1.5;" x1="26" x2="224" y1="221.5" y2="221.5"/><rect fill="none" height="6" style="stroke: #C82930; stroke-width: 1.0;" width="6" x="33" y="230.4023"/><text fill="#000000" font-family="sans-serif" font-size="11" lengthAdjust="spacingAndGlyphs" textLength="174" x="45" y="235.7104">QSlider* currentContentSlider;</text><line style="stroke: #A80036; stroke-width: 1.5;" x1="26" x2="224" y1="242.3047" y2="242.3047"/><ellipse cx="36" cy="254.207" fill="#84BE84" rx="3" ry="3" style="stroke: #038048; stroke-width: 1.0;"/><text fill="#000000" font-family="sans-serif" font-size="11" lengthAdjust="spacingAndGlyphs" textLength="165" x="45" y="256.5151">explicit MainWintow(QWiget*);</text><!--class odtwarzacz.UpdateDurationInfo--><rect fill="#FEFECE" filter="url(#f1vhukhkrwhion)" height="86.4141" id="odtwarzacz.UpdateDurationInfo" style="stroke: #A80036; stroke-width: 1.5;" width="191" x="269.5" y="362"/><ellipse cx="300.7" cy="378" fill="#ADD1B2" rx="11" ry="11" style="stroke: #A80036; stroke-width: 1.0;"/><path d="M303.6688,383.6406 Q303.0906,383.9375 302.45,384.0781 Q301.8094,384.2344 301.1063,384.2344 Q298.6063,384.2344 297.2781,382.5938 Q295.9656,380.9375 295.9656,377.8125 Q295.9656,374.6875 297.2781,373.0313 Q298.6063,371.375 301.1063,371.375 Q301.8094,371.375 302.45,371.5313 Q303.1063,371.6875 303.6688,371.9844 L303.6688,374.7031 Q303.0438,374.125 302.45,373.8594 Q301.8563,373.5781 301.2313,373.5781 Q299.8875,373.5781 299.2,374.6563 Q298.5125,375.7188 298.5125,377.8125 Q298.5125,379.9063 299.2,380.9844 Q299.8875,382.0469 301.2313,382.0469 Q301.8563,382.0469 302.45,381.7813 Q303.0438,381.5 303.6688,380.9219 L303.6688,383.6406 Z "/><text fill="#000000" font-family="sans-serif" font-size="12" lengthAdjust="spacingAndGlyphs" textLength="123" x="318.3" y="382.1543">UpdateDurationInfo</text><line style="stroke: #A80036; stroke-width: 1.5;" x1="270.5" x2="459.5" y1="394" y2="394"/><rect fill="none" height="6" style="stroke: #C82930; stroke-width: 1.0;" width="6" x="277.5" y="402.9023"/><text fill="#000000" font-family="sans-serif" font-size="11" lengthAdjust="spacingAndGlyphs" textLength="105" x="289.5" y="408.2104">qint64 currentInfo;</text><rect fill="none" height="6" style="stroke: #C82930; stroke-width: 1.0;" width="6" x="277.5" y="415.707"/><text fill="#000000" font-family="sans-serif" font-size="11" lengthAdjust="spacingAndGlyphs" textLength="90" x="289.5" y="421.0151">qint64 duration;</text><line style="stroke: #A80036; stroke-width: 1.5;" x1="270.5" x2="459.5" y1="427.6094" y2="427.6094"/><ellipse cx="280.5" cy="439.5117" fill="#84BE84" rx="3" ry="3" style="stroke: #038048; stroke-width: 1.0;"/><text fill="#000000" font-family="sans-serif" font-size="11" lengthAdjust="spacingAndGlyphs" textLength="165" x="289.5" y="441.8198">explicit MainWintow(QWiget*);</text><!--class odtwarzacz.on_actionOpen_triggered--><rect fill="#FEFECE" filter="url(#f1vhukhkrwhion)" height="73.6094" id="odtwarzacz.on_actionOpen_triggered" style="stroke: #A80036; stroke-width: 1.5;" width="191" x="495.5" y="368"/><ellipse cx="510.95" cy="384" fill="#ADD1B2" rx="11" ry="11" style="stroke: #A80036; stroke-width: 1.0;"/><path d="M513.9188,389.6406 Q513.3406,389.9375 512.7,390.0781 Q512.0594,390.2344 511.3563,390.2344 Q508.8563,390.2344 507.5281,388.5938 Q506.2156,386.9375 506.2156,383.8125 Q506.2156,380.6875 507.5281,379.0313 Q508.8563,377.375 511.3563,377.375 Q512.0594,377.375 512.7,377.5313 Q513.3563,377.6875 513.9188,377.9844 L513.9188,380.7031 Q513.2938,380.125 512.7,379.8594 Q512.1063,379.5781 511.4813,379.5781 Q510.1375,379.5781 509.45,380.6563 Q508.7625,381.7188 508.7625,383.8125 Q508.7625,385.9063 509.45,386.9844 Q510.1375,388.0469 511.4813,388.0469 Q512.1063,388.0469 512.7,387.7813 Q513.2938,387.5 513.9188,386.9219 L513.9188,389.6406 Z "/><text fill="#000000" font-family="sans-serif" font-size="12" lengthAdjust="spacingAndGlyphs" textLength="158" x="525.05" y="388.1543">on_actionOpen_triggered</text><line style="stroke: #A80036; stroke-width: 1.5;" x1="496.5" x2="685.5" y1="400" y2="400"/><rect fill="none" height="6" style="stroke: #C82930; stroke-width: 1.0;" width="6" x="503.5" y="408.9023"/><text fill="#000000" font-family="sans-serif" font-size="11" lengthAdjust="spacingAndGlyphs" textLength="161" x="515.5" y="414.2104">QMediaPlayer* mediaPlayer;</text><line style="stroke: #A80036; stroke-width: 1.5;" x1="496.5" x2="685.5" y1="420.8047" y2="420.8047"/><ellipse cx="506.5" cy="432.707" fill="#84BE84" rx="3" ry="3" style="stroke: #038048; stroke-width: 1.0;"/><text fill="#000000" font-family="sans-serif" font-size="11" lengthAdjust="spacingAndGlyphs" textLength="165" x="515.5" y="435.0151">explicit MainWintow(QWiget*);</text><!--class odtwarzacz.on_actionPlay_triggered--><rect fill="#FEFECE" filter="url(#f1vhukhkrwhion)" height="73.6094" id="odtwarzacz.on_actionPlay_triggered" style="stroke: #A80036; stroke-width: 1.5;" width="191" x="721.5" y="368"/><ellipse cx="740.55" cy="384" fill="#ADD1B2" rx="11" ry="11" style="stroke: #A80036; stroke-width: 1.0;"/><path d="M743.5188,389.6406 Q742.9406,389.9375 742.3,390.0781 Q741.6594,390.2344 740.9563,390.2344 Q738.4563,390.2344 737.1281,388.5938 Q735.8156,386.9375 735.8156,383.8125 Q735.8156,380.6875 737.1281,379.0313 Q738.4563,377.375 740.9563,377.375 Q741.6594,377.375 742.3,377.5313 Q742.9563,377.6875 743.5188,377.9844 L743.5188,380.7031 Q742.8938,380.125 742.3,379.8594 Q741.7063,379.5781 741.0813,379.5781 Q739.7375,379.5781 739.05,380.6563 Q738.3625,381.7188 738.3625,383.8125 Q738.3625,385.9063 739.05,386.9844 Q739.7375,388.0469 741.0813,388.0469 Q741.7063,388.0469 742.3,387.7813 Q742.8938,387.5 743.5188,386.9219 L743.5188,389.6406 Z "/><text fill="#000000" font-family="sans-serif" font-size="12" lengthAdjust="spacingAndGlyphs" textLength="150" x="755.45" y="388.1543">on_actionPlay_triggered</text><line style="stroke: #A80036; stroke-width: 1.5;" x1="722.5" x2="911.5" y1="400" y2="400"/><rect fill="none" height="6" style="stroke: #C82930; stroke-width: 1.0;" width="6" x="729.5" y="408.9023"/><text fill="#000000" font-family="sans-serif" font-size="11" lengthAdjust="spacingAndGlyphs" textLength="161" x="741.5" y="414.2104">QMediaPlayer* mediaPlayer;</text><line style="stroke: #A80036; stroke-width: 1.5;" x1="722.5" x2="911.5" y1="420.8047" y2="420.8047"/><ellipse cx="732.5" cy="432.707" fill="#84BE84" rx="3" ry="3" style="stroke: #038048; stroke-width: 1.0;"/><text fill="#000000" font-family="sans-serif" font-size="11" lengthAdjust="spacingAndGlyphs" textLength="165" x="741.5" y="435.0151">explicit MainWintow(QWiget*);</text><!--class odtwarzacz.on_actionPause_triggered--><rect fill="#FEFECE" filter="url(#f1vhukhkrwhion)" height="73.6094" id="odtwarzacz.on_actionPause_triggered" style="stroke: #A80036; stroke-width: 1.5;" width="196" x="948" y="368"/><ellipse cx="963" cy="384" fill="#ADD1B2" rx="11" ry="11" style="stroke: #A80036; stroke-width: 1.0;"/><path d="M965.9688,389.6406 Q965.3906,389.9375 964.75,390.0781 Q964.1094,390.2344 963.4063,390.2344 Q960.9063,390.2344 959.5781,388.5938 Q958.2656,386.9375 958.2656,383.8125 Q958.2656,380.6875 959.5781,379.0313 Q960.9063,377.375 963.4063,377.375 Q964.1094,377.375 964.75,377.5313 Q965.4063,377.6875 965.9688,377.9844 L965.9688,380.7031 Q965.3438,380.125 964.75,379.8594 Q964.1563,379.5781 963.5313,379.5781 Q962.1875,379.5781 961.5,380.6563 Q960.8125,381.7188 960.8125,383.8125 Q960.8125,385.9063 961.5,386.9844 Q962.1875,388.0469 963.5313,388.0469 Q964.1563,388.0469 964.75,387.7813 Q965.3438,387.5 965.9688,386.9219 L965.9688,389.6406 Z "/><text fill="#000000" font-family="sans-serif" font-size="12" lengthAdjust="spacingAndGlyphs" textLength="164" x="977" y="388.1543">on_actionPause_triggered</text><line style="stroke: #A80036; stroke-width: 1.5;" x1="949" x2="1143" y1="400" y2="400"/><rect fill="none" height="6" style="stroke: #C82930; stroke-width: 1.0;" width="6" x="956" y="408.9023"/><text fill="#000000" font-family="sans-serif" font-size="11" lengthAdjust="spacingAndGlyphs" textLength="161" x="968" y="414.2104">QMediaPlayer* mediaPlayer;</text><line style="stroke: #A80036; stroke-width: 1.5;" x1="949" x2="1143" y1="420.8047" y2="420.8047"/><ellipse cx="959" cy="432.707" fill="#84BE84" rx="3" ry="3" style="stroke: #038048; stroke-width: 1.0;"/><text fill="#000000" font-family="sans-serif" font-size="11" lengthAdjust="spacingAndGlyphs" textLength="165" x="968" y="435.0151">explicit MainWintow(QWiget*);</text><!--class odtwarzacz.on_actionMute_toggled--><rect fill="#FEFECE" filter="url(#f1vhukhkrwhion)" height="73.6094" id="odtwarzacz.on_actionMute_toggled" style="stroke: #A80036; stroke-width: 1.5;" width="191" x="1179.5" y="368"/><ellipse cx="1200.35" cy="384" fill="#ADD1B2" rx="11" ry="11" style="stroke: #A80036; stroke-width: 1.0;"/><path d="M1203.3188,389.6406 Q1202.7406,389.9375 1202.1,390.0781 Q1201.4594,390.2344 1200.7563,390.2344 Q1198.2563,390.2344 1196.9281,388.5938 Q1195.6156,386.9375 1195.6156,383.8125 Q1195.6156,380.6875 1196.9281,379.0313 Q1198.2563,377.375 1200.7563,377.375 Q1201.4594,377.375 1202.1,377.5313 Q1202.7563,377.6875 1203.3188,377.9844 L1203.3188,380.7031 Q1202.6938,380.125 1202.1,379.8594 Q1201.5063,379.5781 1200.8813,379.5781 Q1199.5375,379.5781 1198.85,380.6563 Q1198.1625,381.7188 1198.1625,383.8125 Q1198.1625,385.9063 1198.85,386.9844 Q1199.5375,388.0469 1200.8813,388.0469 Q1201.5063,388.0469 1202.1,387.7813 Q1202.6938,387.5 1203.3188,386.9219 L1203.3188,389.6406 Z "/><text fill="#000000" font-family="sans-serif" font-size="12" lengthAdjust="spacingAndGlyphs" textLength="146" x="1215.65" y="388.1543">on_actionMute_toggled</text><line style="stroke: #A80036; stroke-width: 1.5;" x1="1180.5" x2="1369.5" y1="400" y2="400"/><rect fill="none" height="6" style="stroke: #C82930; stroke-width: 1.0;" width="6" x="1187.5" y="408.9023"/><text fill="#000000" font-family="sans-serif" font-size="11" lengthAdjust="spacingAndGlyphs" textLength="161" x="1199.5" y="414.2104">QMediaPlayer* mediaPlayer;</text><line style="stroke: #A80036; stroke-width: 1.5;" x1="1180.5" x2="1369.5" y1="420.8047" y2="420.8047"/><ellipse cx="1190.5" cy="432.707" fill="#84BE84" rx="3" ry="3" style="stroke: #038048; stroke-width: 1.0;"/><text fill="#000000" font-family="sans-serif" font-size="11" lengthAdjust="spacingAndGlyphs" textLength="165" x="1199.5" y="435.0151">explicit MainWintow(QWiget*);</text><!--class odtwarzacz.on_actionFull_Screen_triggered--><rect fill="#FEFECE" filter="url(#f1vhukhkrwhion)" height="73.6094" id="odtwarzacz.on_actionFull_Screen_triggered" style="stroke: #A80036; stroke-width: 1.5;" width="228" x="1406" y="368"/><ellipse cx="1421" cy="384" fill="#ADD1B2" rx="11" ry="11" style="stroke: #A80036; stroke-width: 1.0;"/><path d="M1423.9688,389.6406 Q1423.3906,389.9375 1422.75,390.0781 Q1422.1094,390.2344 1421.4063,390.2344 Q1418.9063,390.2344 1417.5781,388.5938 Q1416.2656,386.9375 1416.2656,383.8125 Q1416.2656,380.6875 1417.5781,379.0313 Q1418.9063,377.375 1421.4063,377.375 Q1422.1094,377.375 1422.75,377.5313 Q1423.4063,377.6875 1423.9688,377.9844 L1423.9688,380.7031 Q1423.3438,380.125 1422.75,379.8594 Q1422.1563,379.5781 1421.5313,379.5781 Q1420.1875,379.5781 1419.5,380.6563 Q1418.8125,381.7188 1418.8125,383.8125 Q1418.8125,385.9063 1419.5,386.9844 Q1420.1875,388.0469 1421.5313,388.0469 Q1422.1563,388.0469 1422.75,387.7813 Q1423.3438,387.5 1423.9688,386.9219 L1423.9688,389.6406 Z "/><text fill="#000000" font-family="sans-serif" font-size="12" lengthAdjust="spacingAndGlyphs" textLength="196" x="1435" y="388.1543">on_actionFull_Screen_triggered</text><line style="stroke: #A80036; stroke-width: 1.5;" x1="1407" x2="1633" y1="400" y2="400"/><rect fill="none" height="6" style="stroke: #C82930; stroke-width: 1.0;" width="6" x="1414" y="408.9023"/><text fill="#000000" font-family="sans-serif" font-size="11" lengthAdjust="spacingAndGlyphs" textLength="161" x="1426" y="414.2104">QMediaPlayer* mediaPlayer;</text><line style="stroke: #A80036; stroke-width: 1.5;" x1="1407" x2="1633" y1="420.8047" y2="420.8047"/><ellipse cx="1417" cy="432.707" fill="#84BE84" rx="3" ry="3" style="stroke: #038048; stroke-width: 1.0;"/><text fill="#000000" font-family="sans-serif" font-size="11" lengthAdjust="spacingAndGlyphs" textLength="165" x="1426" y="435.0151">explicit MainWintow(QWiget*);</text><!--class odtwarzacz.on_actionVolume_Change--><rect fill="#FEFECE" filter="url(#f1vhukhkrwhion)" height="73.6094" id="odtwarzacz.on_actionVolume_Change" style="stroke: #A80036; stroke-width: 1.5;" width="193" x="1669.5" y="368"/><ellipse cx="1684.5" cy="384" fill="#ADD1B2" rx="11" ry="11" style="stroke: #A80036; stroke-width: 1.0;"/><path d="M1687.4688,389.6406 Q1686.8906,389.9375 1686.25,390.0781 Q1685.6094,390.2344 1684.9063,390.2344 Q1682.4063,390.2344 1681.0781,388.5938 Q1679.7656,386.9375 1679.7656,383.8125 Q1679.7656,380.6875 1681.0781,379.0313 Q1682.4063,377.375 1684.9063,377.375 Q1685.6094,377.375 1686.25,377.5313 Q1686.9063,377.6875 1687.4688,377.9844 L1687.4688,380.7031 Q1686.8438,380.125 1686.25,379.8594 Q1685.6563,379.5781 1685.0313,379.5781 Q1683.6875,379.5781 1683,380.6563 Q1682.3125,381.7188 1682.3125,383.8125 Q1682.3125,385.9063 1683,386.9844 Q1683.6875,388.0469 1685.0313,388.0469 Q1685.6563,388.0469 1686.25,387.7813 Q1686.8438,387.5 1687.4688,386.9219 L1687.4688,389.6406 Z "/><text fill="#000000" font-family="sans-serif" font-size="12" lengthAdjust="spacingAndGlyphs" textLength="161" x="1698.5" y="388.1543">on_actionVolume_Change</text><line style="stroke: #A80036; stroke-width: 1.5;" x1="1670.5" x2="1861.5" y1="400" y2="400"/><rect fill="none" height="6" style="stroke: #C82930; stroke-width: 1.0;" width="6" x="1677.5" y="408.9023"/><text fill="#000000" font-family="sans-serif" font-size="11" lengthAdjust="spacingAndGlyphs" textLength="161" x="1689.5" y="414.2104">QMediaPlayer* mediaPlayer;</text><line style="stroke: #A80036; stroke-width: 1.5;" x1="1670.5" x2="1861.5" y1="420.8047" y2="420.8047"/><ellipse cx="1680.5" cy="432.707" fill="#84BE84" rx="3" ry="3" style="stroke: #038048; stroke-width: 1.0;"/><text fill="#000000" font-family="sans-serif" font-size="11" lengthAdjust="spacingAndGlyphs" textLength="165" x="1689.5" y="435.0151">explicit MainWintow(QWiget*);</text><!--class odtwarzacz.positionChanged--><rect fill="#FEFECE" filter="url(#f1vhukhkrwhion)" height="60.8047" id="odtwarzacz.positionChanged" style="stroke: #A80036; stroke-width: 1.5;" width="200" x="265" y="521"/><ellipse cx="307.9" cy="537" fill="#ADD1B2" rx="11" ry="11" style="stroke: #A80036; stroke-width: 1.0;"/><path d="M310.8688,542.6406 Q310.2906,542.9375 309.65,543.0781 Q309.0094,543.2344 308.3063,543.2344 Q305.8063,543.2344 304.4781,541.5938 Q303.1656,539.9375 303.1656,536.8125 Q303.1656,533.6875 304.4781,532.0313 Q305.8063,530.375 308.3063,530.375 Q309.0094,530.375 309.65,530.5313 Q310.3063,530.6875 310.8688,530.9844 L310.8688,533.7031 Q310.2438,533.125 309.65,532.8594 Q309.0563,532.5781 308.4313,532.5781 Q307.0875,532.5781 306.4,533.6563 Q305.7125,534.7188 305.7125,536.8125 Q305.7125,538.9063 306.4,539.9844 Q307.0875,541.0469 308.4313,541.0469 Q309.0563,541.0469 309.65,540.7813 Q310.2438,540.5 310.8688,539.9219 L310.8688,542.6406 Z "/><text fill="#000000" font-family="sans-serif" font-size="12" lengthAdjust="spacingAndGlyphs" textLength="106" x="328.1" y="541.1543">positionChanged</text><line style="stroke: #A80036; stroke-width: 1.5;" x1="266" x2="464" y1="553" y2="553"/><rect fill="none" height="6" style="stroke: #C82930; stroke-width: 1.0;" width="6" x="273" y="561.9023"/><text fill="#000000" font-family="sans-serif" font-size="11" lengthAdjust="spacingAndGlyphs" textLength="174" x="285" y="567.2104">QSlider* currentContentSlider;</text><line style="stroke: #A80036; stroke-width: 1.5;" x1="266" x2="464" y1="573.8047" y2="573.8047"/><!--link odtwarzacz.Main to odtwarzacz.MainWindow--><path d="M931,124.1389 C931,147.9011 931,175.4361 931,195.9589 " fill="none" id="odtwarzacz.Main-odtwarzacz.MainWindow" style="stroke: #A80036; stroke-width: 1.0;"/><polygon fill="none" points="924.0001,124.0941,931,104.0941,938.0001,124.0941,924.0001,124.0941" style="stroke: #A80036; stroke-width: 1.0;"/><!--link odtwarzacz.initLayout to odtwarzacz.init--><path d="M266.4147,301.189 C245.2023,317.0983 223.144,333.642 203.0348,348.7239 " fill="none" id="odtwarzacz.initLayout-odtwarzacz.init" style="stroke: #A80036; stroke-width: 1.0;"/><polygon fill="none" points="262.2247,295.5815,282.4248,289.1814,270.6248,306.7815,262.2247,295.5815" style="stroke: #A80036; stroke-width: 1.0;"/><!--link odtwarzacz.initSignalAndSlots to odtwarzacz.init--><path d="M125.9669,284.0323 C126.3167,304.8418 126.7109,328.2957 127.0584,348.974 " fill="none" id="odtwarzacz.initSignalAndSlots-odtwarzacz.init" style="stroke: #A80036; stroke-width: 1.0;"/><polygon fill="none" points="118.9661,284.0343,125.6289,263.9194,132.9641,283.799,118.9661,284.0343" style="stroke: #A80036; stroke-width: 1.0;"/><!--link odtwarzacz.MainWindow to odtwarzacz.init--><path d="M817.056,238.3867 C680.49,254.6029 445.8036,288.7641 252,349 C246.1352,350.8228 240.1826,352.853 234.2206,355.0297 " fill="none" id="odtwarzacz.MainWindow-odtwarzacz.init" style="stroke: #A80036; stroke-width: 1.0;"/><polygon fill="none" points="816.6177,231.3905,837.2932,236.0301,818.2371,245.2966,816.6177,231.3905" style="stroke: #A80036; stroke-width: 1.0;"/><!--link odtwarzacz.MainWindow to odtwarzacz.UpdateDurationInfo--><path d="M832.4077,247.2809 C739.4437,268.244 597.0089,303.9189 478,349 C467.8648,352.8393 457.4242,357.2875 447.1753,361.9658 " fill="none" id="odtwarzacz.MainWindow-odtwarzacz.UpdateDurationInfo" style="stroke: #A80036; stroke-width: 1.0;"/><polygon fill="#A80036" points="837.3499,246.1698,827.6917,244.2413,832.4717,247.2665,829.4465,252.0465,837.3499,246.1698" style="stroke: #A80036; stroke-width: 1.0;"/><!--link odtwarzacz.MainWindow to odtwarzacz.on_actionOpen_triggered--><path d="M868.0375,259.5553 C809.5204,290.2768 722.4791,335.9735 661.6224,367.9232 " fill="none" id="odtwarzacz.MainWindow-odtwarzacz.on_actionOpen_triggered" style="stroke: #A80036; stroke-width: 1.0;"/><polygon fill="#A80036" points="872.5519,257.1852,862.724,257.8273,868.125,259.5095,866.4428,264.9104,872.5519,257.1852" style="stroke: #A80036; stroke-width: 1.0;"/><!--link odtwarzacz.MainWindow to odtwarzacz.on_actionPlay_triggered--><path d="M908.5777,261.6085 C888.9862,292.2848 860.6344,336.6778 840.6793,367.9232 " fill="none" id="odtwarzacz.MainWindow-odtwarzacz.on_actionPlay_triggered" style="stroke: #A80036; stroke-width: 1.0;"/><polygon fill="#A80036" points="911.4027,257.1852,903.1873,262.6173,908.7115,261.3991,909.9296,266.9233,911.4027,257.1852" style="stroke: #A80036; stroke-width: 1.0;"/><!--link odtwarzacz.MainWindow to odtwarzacz.on_actionPause_triggered--><path d="M953.6189,261.6085 C973.3824,292.2848 1001.9829,336.6778 1022.113,367.9232 " fill="none" id="odtwarzacz.MainWindow-odtwarzacz.on_actionPause_triggered" style="stroke: #A80036; stroke-width: 1.0;"/><polygon fill="#A80036" points="950.7692,257.1852,952.2811,266.9173,953.4772,261.3884,959.0062,262.5845,950.7692,257.1852" style="stroke: #A80036; stroke-width: 1.0;"/><!--link odtwarzacz.MainWindow to odtwarzacz.on_actionMute_toggled--><path d="M994.7033,259.5553 C1053.9087,290.2768 1141.9741,335.9735 1203.5468,367.9232 " fill="none" id="odtwarzacz.MainWindow-odtwarzacz.on_actionMute_toggled" style="stroke: #A80036; stroke-width: 1.0;"/><polygon fill="#A80036" points="990.1357,257.1852,996.2819,264.8809,994.5738,259.4881,999.9666,257.78,990.1357,257.1852" style="stroke: #A80036; stroke-width: 1.0;"/><!--link odtwarzacz.MainWindow to odtwarzacz.on_actionFull_Screen_triggered--><path d="M1029.8882,248.7917 C1123.2649,270.8278 1266.6796,307.2329 1388,349 C1404.2411,354.5913 1421.3167,361.2369 1437.597,367.9621 " fill="none" id="odtwarzacz.MainWindow-odtwarzacz.on_actionFull_Screen_triggered" style="stroke: #A80036; stroke-width: 1.0;"/><polygon fill="#A80036" points="1024.9244,247.6227,1032.7677,253.5795,1029.7912,248.769,1034.6017,245.7925,1024.9244,247.6227" style="stroke: #A80036; stroke-width: 1.0;"/><!--link odtwarzacz.MainWindow to odtwarzacz.on_actionVolume_Change--><path d="M1030.0368,234.2386 C1171.0198,247.2783 1436.3901,279.3512 1652,349 C1667.5274,354.0159 1683.6036,360.8111 1698.6138,367.938 " fill="none" id="odtwarzacz.MainWindow-odtwarzacz.on_actionVolume_Change" style="stroke: #A80036; stroke-width: 1.0;"/><polygon fill="#A80036" points="1024.6604,233.745,1033.2569,238.5513,1029.6394,234.2023,1033.9885,230.5849,1024.6604,233.745" style="stroke: #A80036; stroke-width: 1.0;"/><!--link odtwarzacz.UpdateDurationInfo to odtwarzacz.positionChanged--><path d="M365,468.4211 C365,486.5543 365,505.5059 365,520.7218 " fill="none" id="odtwarzacz.UpdateDurationInfo-odtwarzacz.positionChanged" style="stroke: #A80036; stroke-width: 1.0;"/><polygon fill="none" points="358.0001,468.1625,365,448.1625,372.0001,468.1624,358.0001,468.1625" style="stroke: #A80036; stroke-width: 1.0;"/><!--
@startuml

namespace odtwarzacz {

    interface Main {
        + void execute()
    }

    class MainWindow{
	+ explicit MainWintow(QWiget*)
    }

    Main <|- - MainWindow

    class init {
        - QVideoWidget* videoWidget;
        - QMediaPlayer* mediaPlayer;
        - QSlider* currentContentSlider;
	- QLabel* currentContentDuration;
	+  explicit MainWintow(QWiget*);
    }

    class initLayout {
	- QBoxLayout* displayLayout;
	- QHBoxLayout* hLayout;
	- QBoxLayout* boxLayout;
        - QSlider* currentContentSlider;
    	- QLabel* currentContentDuration;
	+  explicit MainWintow(QWiget*);
    }

    class initSignalAndSlots {
	- QSlider* currentContentSlider;
	+ explicit MainWintow(QWiget*);
    }

    initLayout <|- - init
    initSignalAndSlots <|- - init

    class UpdateDurationInfo {
        - qint64 currentInfo;
        - qint64 duration;
        +  explicit MainWintow(QWiget*);
    }

    class on_actionOpen_triggered {
	-  QMediaPlayer* mediaPlayer;
	+  explicit MainWintow(QWiget*);
    }

    class on_actionPlay_triggered {
	-  QMediaPlayer* mediaPlayer;
	+  explicit MainWintow(QWiget*);
    }

    class on_actionPause_triggered {
	-  QMediaPlayer* mediaPlayer;
	+  explicit MainWintow(QWiget*);
    }

    class on_actionMute_toggled {
	-  QMediaPlayer* mediaPlayer;
	+  explicit MainWintow(QWiget*);
    }

    class on_actionFull_Screen_triggered {
	-  QMediaPlayer* mediaPlayer;
	+  explicit MainWintow(QWiget*);
    }

    class on_actionVolume_Change {
	-  QMediaPlayer* mediaPlayer;
	+  explicit MainWintow(QWiget*);
    }

    MainWindow <|- - init

    MainWindow <- - UpdateDurationInfo
    MainWindow <- - on_actionOpen_triggered
    MainWindow <- - on_actionPlay_triggered
    MainWindow <- - on_actionPause_triggered
    MainWindow <- - on_actionMute_toggled
    MainWindow <- - on_actionFull_Screen_triggered
    MainWindow <- - on_actionVolume_Change

    class positionChanged {
	- QSlider* currentContentSlider;
    }

    UpdateDurationInfo <|- - positionChanged  
}

@enduml

PlantUML version 1.2017.15(Mon Jul 03 18:45:34 CEST 2017)
(GPL source distribution)
Java Runtime: OpenJDK Runtime Environment
JVM: OpenJDK 64-Bit Server VM
Java Version: 10.0.2+13-Ubuntu-1ubuntu0.18.04.4
Operating System: Linux
OS Version: 4.15.0-44-generic
Default Encoding: UTF-8
Language: pl
Country: PL
--></g></svg>